<svg width="21" height="16" viewBox="0 0 21 16" fill="none" xmlns="http://www.w3.org/2000/svg">
<path d="M11.4697 14.4697C11.1768 14.7626 11.1768 15.2374 11.4697 15.5303C11.7626 15.8232 12.2374 15.8232 12.5303 15.5303L11.4697 14.4697ZM19 8L19.5303 8.53033L20.0607 8L19.5303 7.46967L19 8ZM12.5303 0.46967C12.2374 0.176777 11.7626 0.176777 11.4697 0.46967C11.1768 0.762563 11.1768 1.23744 11.4697 1.53033L12.5303 0.46967ZM1 7.25C0.585786 7.25 0.25 7.58579 0.25 8C0.25 8.41421 0.585786 8.75 1 8.75L1 7.25ZM12.5303 15.5303L19.5303 8.53033L18.4697 7.46967L11.4697 14.4697L12.5303 15.5303ZM19.5303 7.46967L12.5303 0.46967L11.4697 1.53033L18.4697 8.53033L19.5303 7.46967ZM1 8.75L19 8.75V7.25L1 7.25L1 8.75Z" fill="#666666"/>
</svg>
